<svg width="20" height="20" xmlns="http://www.w3.org/2000/svg" xmlns:xlink="http://www.w3.org/1999/xlink"><defs><path d="M0 0h17a3 3 0 013 3v17H0V0z" id="prefix__a"></path></defs><g fill="none" fill-rule="evenodd"><mask id="prefix__b" fill="#fff"><use xlink:href="#prefix__a"></use></mask><g mask="url(#prefix__b)"><path d="M2-.99C2-12.045 10.96-21 22-21s20 8.955 20 19.99v.02a19.964 19.964 0 01-5.852 14.142A19.985 19.985 0 0122 19C10.938 19 2 10.045 2-.99z" fill="currentColor" fill-rule="nonzero"></path><path d="M16.828 4.172c.26.26.26.682 0 .942L14.943 7l1.885 1.886a.667.667 0 11-.942.942L14 7.943l-1.886 1.885a.667.667 0 11-.942-.942L13.057 7l-1.885-1.886a.667.667 0 11.942-.942L14 6.057l1.886-1.885c.26-.26.682-.26.942 0z" fill="#FFF"></path></g></g></svg>